<?xml version="1.0" standalone="no"?>
<!DOCTYPE svg PUBLIC "-//W3C//DTD SVG 20010904//EN"
 "http://www.w3.org/TR/2001/REC-SVG-20010904/DTD/svg10.dtd">
<svg version="1.0" xmlns="http://www.w3.org/2000/svg"
 width="248.000000pt" height="248.000000pt" viewBox="0 0 248.000000 248.000000"
 preserveAspectRatio="xMidYMid meet">
<metadata>
Created by potrace 1.11, written by Peter Selinger 2001-2013
</metadata>
<g transform="translate(0.000000,248.000000) scale(0.100000,-0.100000)"
fill="#000000" stroke="none">
<path d="M1086 2121 c-4 -5 4 -34 15 -65 16 -40 27 -56 40 -56 24 0 24 6 -2
74 -20 52 -40 69 -53 47z"/>
<path d="M1238 2122 c-14 -3 -18 -14 -18 -52 0 -49 13 -71 31 -53 6 6 9 32 7
59 -2 41 -6 49 -20 46z"/>
<path d="M1341 2075 c-25 -68 -26 -75 -3 -75 11 0 24 18 39 57 12 31 20 60 17
64 -13 22 -34 4 -53 -46z"/>
<path d="M966 2051 c-9 -13 67 -101 87 -101 26 0 21 18 -19 66 -34 42 -57 54
-68 35z"/>
<path d="M1446 2016 c-37 -45 -45 -66 -23 -66 16 0 26 9 65 53 18 21 30 42 27
48 -12 19 -35 8 -69 -35z"/>
<path d="M880 1942 c0 -11 19 -28 53 -45 61 -32 67 -33 67 -9 0 10 -20 28 -50
45 -59 32 -70 33 -70 9z"/>
<path d="M1528 1932 c-29 -16 -48 -34 -48 -44 0 -24 12 -23 70 10 30 16 50 34
50 45 0 24 -17 21 -72 -11z"/>
<path d="M1186 1939 c-49 -12 -101 -50 -123 -92 -19 -34 -30 -140 -39 -384 -5
-123 -6 -133 -25 -133 -14 0 -19 -7 -20 -27 0 -16 -3 -22 -6 -15 -7 17 -30 15
-37 -4 -3 -9 -6 -31 -6 -49 0 -81 37 -92 43 -12 2 31 4 14 5 -44 l2 -96 -24 4
c-36 7 -66 -28 -66 -76 0 -50 23 -75 61 -67 28 5 28 5 31 -52 l3 -57 48 2 c91
5 113 -30 47 -72 -46 -29 -49 -38 -53 -170 -1 -71 -6 -100 -14 -101 -7 -1 -18
-2 -23 -3 -6 0 -15 -11 -21 -24 -5 -12 -23 -30 -40 -39 -39 -23 -40 -64 -1
-80 53 -23 617 -19 637 4 16 18 13 49 -5 65 -11 10 -33 30 -48 44 -15 15 -37
30 -49 34 -22 6 -23 11 -23 114 0 117 -1 120 -64 166 l-39 28 24 19 c17 15 35
19 74 16 l50 -3 3 55 c2 30 9 62 16 70 22 24 28 58 16 81 -10 17 -9 23 1 30
11 7 9 10 -8 15 -22 6 -23 10 -23 126 0 112 -1 120 -18 115 -18 -4 -19 8 -26
217 -4 122 -11 238 -16 257 -16 58 -74 116 -132 134 -57 17 -57 17 -112 4z
m-239 -906 c-16 -16 -17 -16 -17 3 0 11 3 24 7 28 4 3 11 2 17 -4 7 -7 5 -16
-7 -27z m31 -35 c-5 -16 -48 -24 -48 -9 0 8 17 16 43 20 5 0 7 -5 5 -11z m297
-354 c24 -10 45 -58 45 -104 l0 -41 -82 3 -83 3 0 54 c1 44 5 57 24 72 23 19
65 24 96 13z"/>
<path d="M1500 1234 c0 -57 2 -65 18 -62 14 3 18 16 20 66 3 57 1 62 -18 62
-18 0 -20 -6 -20 -66z"/>
<path d="M110 1164 c-22 -6 -22 -224 0 -224 31 0 36 16 36 105 -1 84 0 90 19
90 14 0 21 -8 23 -27 3 -23 -1 -28 -18 -28 -16 0 -21 -5 -18 -22 4 -33 51 -37
72 -6 49 69 -21 137 -114 112z"/>
<path d="M434 1128 c6 -31 3 -35 -24 -45 -30 -11 -50 -46 -50 -86 0 -37 16
-49 66 -53 l49 -3 0 107 c0 105 0 107 -24 110 -22 3 -23 1 -17 -30z m6 -85 c0
-30 -12 -63 -21 -63 -15 0 -22 27 -15 55 7 28 36 34 36 8z"/>
<path d="M2157 1125 c-4 -8 -2 -17 3 -20 13 -8 40 6 40 21 0 19 -36 18 -43 -1z"/>
<path d="M842 1118 c-7 -7 -12 -18 -12 -26 0 -10 -8 -12 -29 -7 -64 14 -98
-45 -46 -79 28 -18 33 -36 10 -36 -8 0 -15 7 -15 15 0 24 -28 17 -33 -7 -2
-13 -5 3 -6 34 -1 65 -20 84 -72 73 -34 -8 -42 -45 -9 -45 11 0 20 5 20 10 0
6 5 10 10 10 22 0 8 -19 -20 -29 -17 -5 -34 -20 -40 -33 -5 -13 -9 -17 -9 -9
-1 11 -4 11 -16 1 -26 -21 -47 -4 -43 35 3 34 23 51 23 20 0 -8 3 -15 8 -15 4
0 12 0 17 0 16 0 11 47 -6 54 -27 10 -43 7 -64 -14 -25 -25 -27 -91 -4 -114
19 -20 58 -21 74 -1 11 13 14 13 27 0 17 -17 39 -19 48 -5 4 7 11 7 18 2 16
-12 107 -13 129 -1 26 14 22 54 -7 77 -33 26 -32 30 9 30 l33 0 -1 -56 c-1
-51 1 -57 20 -60 19 -3 20 1 16 54 -3 41 -1 59 9 66 11 7 11 11 2 15 -7 2 -13
16 -13 29 0 26 -10 30 -28 12z m-172 -123 c0 -8 -7 -15 -15 -15 -16 0 -20 12
-8 23 11 12 23 8 23 -8z"/>
<path d="M2231 1117 c-13 -16 -15 -33 -13 -114 2 -56 4 -63 22 -63 18 0 20 7
20 61 0 74 16 75 43 3 16 -41 17 -55 7 -88 -9 -31 -9 -40 2 -47 24 -16 35 -10
31 16 -3 15 7 50 26 91 30 65 40 114 22 114 -30 0 -39 -13 -34 -51 8 -54 -10
-49 -25 7 -12 44 -14 45 -42 39 -27 -6 -30 -4 -30 19 0 28 -11 33 -29 13z"/>
<path d="M270 1078 c-14 -6 -20 -12 -13 -15 8 -3 5 -11 -8 -24 -54 -54 15
-128 79 -83 20 13 22 23 20 75 -2 56 -3 59 -28 58 -14 0 -36 -5 -50 -11z m40
-73 c0 -37 -6 -46 -26 -38 -14 5 -19 49 -8 77 10 26 34 -1 34 -39z"/>
<path d="M1540 1030 c0 -32 -3 -66 -6 -75 -5 -13 -2 -16 17 -13 22 3 24 8 27
61 4 79 27 73 26 -7 -1 -57 1 -61 31 -50 12 5 15 15 10 48 -6 44 7 78 24 61 6
-6 7 -25 1 -50 -11 -48 0 -65 44 -65 45 0 60 13 52 44 -7 30 2 76 15 76 5 0 9
-27 9 -61 0 -52 2 -60 18 -57 13 2 18 15 20 61 2 43 7 57 18 57 12 0 15 -12
12 -57 -3 -54 -1 -58 20 -61 21 -3 22 0 22 61 0 40 -5 68 -12 75 -7 5 -47 10
-90 9 l-76 0 5 -31 c2 -17 0 -49 -5 -71 -10 -40 -10 -40 -11 22 -1 37 -6 65
-13 70 -7 4 -46 9 -85 9 l-73 2 0 -58z"/>
<path d="M1910 1026 c0 -74 8 -84 68 -83 l42 0 0 74 c0 66 -2 74 -17 71 -14
-2 -19 -16 -23 -57 -3 -34 -10 -56 -19 -59 -11 -4 -13 6 -8 51 6 45 4 56 -9
61 -30 12 -34 5 -34 -58z"/>
<path d="M2030 1013 c0 -66 2 -74 18 -71 13 2 18 15 20 61 2 44 7 57 19 57 13
0 15 -8 9 -46 -6 -48 4 -74 30 -74 19 0 20 123 1 138 -7 6 -32 11 -55 10 l-42
0 0 -75z"/>
<path d="M2165 1082 c-5 -4 -10 -36 -10 -72 0 -60 2 -65 23 -68 21 -3 22 0 22
72 0 75 -7 89 -35 68z"/>
</g>
</svg>
